<?xml version="1.0" encoding="UTF-8"?>
<svg version="1.1" viewBox="0 0 1920 1920" width="1280" height="1280" xmlns="http://www.w3.org/2000/svg">
<path transform="translate(0)" d="m0 0h1920v1920h-1920z" fill="#F8F8F8"/>
<path transform="translate(945,512)" d="m0 0h12l16 3 15 6 14 8 12 9 12 11 11 12 13 18 10 18 9 19 8 24 5 21 1 8h184l2 9 16 101 16 103 13 83 20 127 19 121 14 90 14 89v6h-842l1-11 22-125 20-113 35-199 17-96 32-182 1-3h168l2-18 5-23 9-27 9-19 12-19 10-13 7-8 8-7 10-8 14-8 10-4z" fill="#FC5013"/>
<path transform="translate(950,831)" d="m0 0h37l24 3 21 5 20 7 21 10 16 10 16 13 8 7 11 11 9 11 11 16 7 12 8 19 6 23 3 22v21l-4 13-7 9-10 7-10 4-30 4-67 6-144 10-31 2-9 1 3 12 8 16 9 11 8 8 13 10 16 9 16 7 21 6 13 2h37l22-3 26-6 24-9 23-11 21-13 10-7 6 1 17 28 10 17 5 9-1 4-7 8-14 11-15 11-21 12-23 10-26 8-25 5-32 3h-33l-25-2-25-4-24-6-20-7-25-12-16-10-13-10-11-9-7-8-10-11-10-14-9-16-6-12-8-24-4-21-2-19v-30l3-24 6-23 7-18 12-23 10-14 8-10 9-10 16-16 14-11 13-9 18-10 18-8 18-6 21-5z" fill="#F8F8F8"/>
<path transform="translate(946,532)" d="m0 0h11l13 3 9 4 14 8 10 8 11 10 9 11 11 15 9 16 9 21 6 18 4 17v6h-206l-1-2 4-25 7-24 9-21 7-13 9-13 8-10 12-12 13-9 11-5z" fill="#F8F8F8"/>
<path transform="translate(952,906)" d="m0 0h18l18 3 19 7 15 9 13 11 8 8 9 14 5 12 3 14v7l-4 3-11 3-51 6-43 4-30 2-23 1h-34l-8-3-2-3v-12l4-17 8-16 8-11 7-8h2l1-3 14-11 13-8 17-7 17-4z" fill="#FC5013"/>
<path transform="translate(945,512)" d="m0 0h12l16 3 15 6 14 8 12 9 12 11 11 12 13 18 10 18 9 19 8 24 5 21 3 20 2 21 5 4 3 6v11l-4 8-8 5-3 1h-8l-10-5-4-6-1-3v-10l4-8 4-3-1-19-2-17-8-30-8-20-8-16-9-15-11-14-10-11-11-9-10-7-12-6-12-4-6-1h-11l-14 4-13 7-11 9-11 11-12 17-8 14-8 18-7 21-5 25-2 19v28l7 5 4 7v12l-5 8-8 5h-11l-8-4-5-7-1-3v-10l3-6 2-2 1-35 3-25 5-23 9-27 9-19 12-19 10-13 7-8 8-7 10-8 14-8 10-4z" fill="#060200"/>
</svg>
